<?xml version="1.0" encoding="UTF-8"?>
<svg xmlns="http://www.w3.org/2000/svg" version="1.1" width="300" height="300" viewBox="0 0 300 300"><rect x="0" y="0" width="300" height="300" fill="#ffffff"/><g transform="scale(10.345)"><g transform="translate(0,0)"><path fill-rule="evenodd" d="M10 0L10 2L11 2L11 0ZM12 0L12 1L13 1L13 2L12 2L12 4L13 4L13 3L14 3L14 4L15 4L15 3L16 3L16 4L17 4L17 5L20 5L20 9L19 9L19 8L16 8L16 7L17 7L17 6L16 6L16 5L15 5L15 6L14 6L14 8L15 8L15 9L12 9L12 7L13 7L13 5L11 5L11 6L10 6L10 4L11 4L11 3L8 3L8 4L9 4L9 5L8 5L8 7L9 7L9 8L6 8L6 9L10 9L10 11L11 11L11 9L12 9L12 10L13 10L13 11L12 11L12 13L13 13L13 12L14 12L14 13L19 13L19 14L18 14L18 15L19 15L19 14L20 14L20 16L17 16L17 15L16 15L16 14L15 14L15 15L14 15L14 16L15 16L15 17L12 17L12 15L13 15L13 14L11 14L11 15L10 15L10 14L8 14L8 15L9 15L9 16L10 16L10 17L8 17L8 16L5 16L5 17L4 17L4 18L5 18L5 19L3 19L3 20L2 20L2 21L3 21L3 20L6 20L6 21L7 21L7 20L8 20L8 23L9 23L9 22L11 22L11 23L10 23L10 24L8 24L8 29L11 29L11 27L9 27L9 26L10 26L10 24L11 24L11 25L12 25L12 26L13 26L13 27L12 27L12 29L13 29L13 28L14 28L14 29L19 29L19 28L22 28L22 27L23 27L23 29L24 29L24 28L25 28L25 26L24 26L24 25L26 25L26 26L27 26L27 28L26 28L26 29L27 29L27 28L28 28L28 26L29 26L29 25L27 25L27 24L28 24L28 22L29 22L29 20L28 20L28 18L29 18L29 17L28 17L28 18L26 18L26 19L27 19L27 20L25 20L25 17L24 17L24 16L26 16L26 17L27 17L27 16L26 16L26 15L24 15L24 14L26 14L26 13L28 13L28 14L27 14L27 15L28 15L28 14L29 14L29 12L25 12L25 11L24 11L24 10L26 10L26 11L27 11L27 10L29 10L29 9L28 9L28 8L27 8L27 10L26 10L26 8L25 8L25 9L24 9L24 8L23 8L23 9L22 9L22 8L21 8L21 5L20 5L20 4L21 4L21 3L20 3L20 2L21 2L21 1L20 1L20 0L19 0L19 1L20 1L20 2L19 2L19 3L16 3L16 2L17 2L17 1L16 1L16 0L15 0L15 1L14 1L14 0ZM8 1L8 2L9 2L9 1ZM14 2L14 3L15 3L15 2ZM19 3L19 4L20 4L20 3ZM9 6L9 7L10 7L10 6ZM11 6L11 7L12 7L12 6ZM15 6L15 7L16 7L16 6ZM18 6L18 7L19 7L19 6ZM0 8L0 9L3 9L3 10L4 10L4 9L5 9L5 8ZM10 8L10 9L11 9L11 8ZM15 9L15 10L17 10L17 12L21 12L21 10L22 10L22 9L20 9L20 10L19 10L19 9ZM23 9L23 10L24 10L24 9ZM0 10L0 11L1 11L1 10ZM6 10L6 11L4 11L4 12L3 12L3 14L4 14L4 12L5 12L5 15L7 15L7 14L6 14L6 13L7 13L7 12L8 12L8 10ZM18 10L18 11L19 11L19 10ZM6 11L6 12L7 12L7 11ZM14 11L14 12L16 12L16 11ZM22 11L22 13L23 13L23 14L24 14L24 13L25 13L25 12L24 12L24 13L23 13L23 11ZM0 12L0 13L1 13L1 12ZM9 12L9 13L11 13L11 12ZM20 13L20 14L21 14L21 16L20 16L20 18L19 18L19 17L17 17L17 16L16 16L16 17L15 17L15 18L16 18L16 17L17 17L17 19L16 19L16 20L18 20L18 19L20 19L20 20L19 20L19 21L14 21L14 20L15 20L15 19L14 19L14 20L13 20L13 21L12 21L12 19L13 19L13 18L12 18L12 17L10 17L10 18L9 18L9 19L10 19L10 20L9 20L9 21L11 21L11 22L13 22L13 23L12 23L12 25L15 25L15 26L16 26L16 27L14 27L14 28L18 28L18 27L17 27L17 26L18 26L18 25L20 25L20 26L19 26L19 27L20 27L20 26L21 26L21 27L22 27L22 26L23 26L23 27L24 27L24 26L23 26L23 25L22 25L22 26L21 26L21 25L20 25L20 24L18 24L18 22L20 22L20 20L21 20L21 19L22 19L22 20L24 20L24 17L23 17L23 16L24 16L24 15L22 15L22 14L21 14L21 13ZM0 14L0 16L1 16L1 15L2 15L2 16L3 16L3 15L2 15L2 14ZM21 16L21 17L22 17L22 18L23 18L23 17L22 17L22 16ZM0 17L0 21L1 21L1 18L2 18L2 17ZM6 17L6 18L7 18L7 19L6 19L6 20L7 20L7 19L8 19L8 17ZM10 18L10 19L11 19L11 18ZM21 21L21 24L24 24L24 21ZM25 21L25 24L27 24L27 23L26 23L26 22L28 22L28 21ZM15 22L15 23L14 23L14 24L15 24L15 25L18 25L18 24L15 24L15 23L16 23L16 22ZM22 22L22 23L23 23L23 22ZM0 0L0 7L7 7L7 0ZM1 1L1 6L6 6L6 1ZM2 2L2 5L5 5L5 2ZM22 0L22 7L29 7L29 0ZM23 1L23 6L28 6L28 1ZM24 2L24 5L27 5L27 2ZM0 22L0 29L7 29L7 22ZM1 23L1 28L6 28L6 23ZM2 24L2 27L5 27L5 24Z" fill="#000000"/></g></g></svg>
