<?xml version="1.0" encoding="UTF-8"?>
<svg xmlns="http://www.w3.org/2000/svg" version="1.1" width="300" height="300" viewBox="0 0 300 300"><rect x="0" y="0" width="300" height="300" fill="#ffffff"/><g transform="scale(10.345)"><g transform="translate(0,0)"><path fill-rule="evenodd" d="M10 0L10 2L11 2L11 0ZM12 0L12 1L13 1L13 2L12 2L12 4L13 4L13 3L14 3L14 4L16 4L16 5L15 5L15 6L14 6L14 8L16 8L16 9L18 9L18 10L20 10L20 9L22 9L22 10L23 10L23 9L24 9L24 12L23 12L23 11L22 11L22 12L21 12L21 13L18 13L18 12L20 12L20 11L18 11L18 12L17 12L17 11L16 11L16 10L15 10L15 9L12 9L12 7L13 7L13 5L11 5L11 6L10 6L10 4L11 4L11 3L8 3L8 4L9 4L9 5L8 5L8 7L9 7L9 8L6 8L6 9L8 9L8 10L9 10L9 9L10 9L10 11L11 11L11 9L12 9L12 10L13 10L13 11L12 11L12 13L13 13L13 12L14 12L14 13L16 13L16 14L15 14L15 15L14 15L14 16L15 16L15 17L12 17L12 15L13 15L13 14L10 14L10 13L11 13L11 12L9 12L9 11L8 11L8 12L5 12L5 10L2 10L2 11L4 11L4 12L1 12L1 10L0 10L0 12L1 12L1 13L0 13L0 14L1 14L1 15L0 15L0 16L1 16L1 17L0 17L0 21L1 21L1 17L2 17L2 20L3 20L3 19L4 19L4 20L5 20L5 21L7 21L7 20L5 20L5 19L4 19L4 16L3 16L3 17L2 17L2 15L5 15L5 14L6 14L6 15L7 15L7 14L6 14L6 13L8 13L8 12L9 12L9 14L8 14L8 15L9 15L9 14L10 14L10 16L11 16L11 17L12 17L12 18L13 18L13 19L12 19L12 21L13 21L13 20L14 20L14 21L19 21L19 20L17 20L17 19L18 19L18 18L15 18L15 17L19 17L19 18L20 18L20 16L21 16L21 17L22 17L22 18L23 18L23 17L24 17L24 18L25 18L25 19L23 19L23 20L22 20L22 19L20 19L20 22L15 22L15 23L14 23L14 24L15 24L15 25L12 25L12 23L13 23L13 22L9 22L9 21L11 21L11 20L10 20L10 19L9 19L9 18L10 18L10 17L9 17L9 18L8 18L8 16L6 16L6 17L5 17L5 18L6 18L6 19L9 19L9 21L8 21L8 23L11 23L11 25L10 25L10 24L8 24L8 29L10 29L10 28L9 28L9 26L10 26L10 27L11 27L11 25L12 25L12 26L13 26L13 27L12 27L12 29L13 29L13 28L14 28L14 29L15 29L15 28L16 28L16 29L19 29L19 28L22 28L22 27L23 27L23 29L24 29L24 28L25 28L25 27L27 27L27 28L26 28L26 29L27 29L27 28L28 28L28 26L29 26L29 25L27 25L27 24L28 24L28 22L29 22L29 21L28 21L28 22L26 22L26 23L27 23L27 24L25 24L25 20L26 20L26 21L27 21L27 20L29 20L29 19L27 19L27 18L29 18L29 17L27 17L27 16L25 16L25 15L23 15L23 13L24 13L24 14L25 14L25 13L27 13L27 12L28 12L28 11L27 11L27 12L25 12L25 10L26 10L26 8L25 8L25 9L24 9L24 8L23 8L23 9L22 9L22 8L21 8L21 6L20 6L20 9L18 9L18 8L16 8L16 7L17 7L17 5L20 5L20 4L21 4L21 1L20 1L20 0L19 0L19 1L20 1L20 2L19 2L19 3L17 3L17 4L16 4L16 2L17 2L17 1L16 1L16 0L15 0L15 1L14 1L14 0ZM8 1L8 2L9 2L9 1ZM14 2L14 3L15 3L15 2ZM19 3L19 4L20 4L20 3ZM9 6L9 7L10 7L10 6ZM11 6L11 7L12 7L12 6ZM15 6L15 7L16 7L16 6ZM18 6L18 7L19 7L19 6ZM0 8L0 9L5 9L5 8ZM10 8L10 9L11 9L11 8ZM27 8L27 10L29 10L29 9L28 9L28 8ZM6 10L6 11L7 11L7 10ZM14 11L14 12L15 12L15 11ZM4 12L4 14L5 14L5 12ZM16 12L16 13L17 13L17 16L20 16L20 14L18 14L18 13L17 13L17 12ZM22 12L22 13L23 13L23 12ZM24 12L24 13L25 13L25 12ZM1 13L1 14L3 14L3 13ZM28 13L28 14L26 14L26 15L28 15L28 14L29 14L29 13ZM21 14L21 16L22 16L22 17L23 17L23 15L22 15L22 14ZM15 15L15 16L16 16L16 15ZM24 16L24 17L25 17L25 18L27 18L27 17L25 17L25 16ZM6 17L6 18L7 18L7 17ZM14 19L14 20L15 20L15 19ZM26 19L26 20L27 20L27 19ZM21 21L21 24L24 24L24 21ZM22 22L22 23L23 23L23 22ZM15 23L15 24L16 24L16 25L15 25L15 26L16 26L16 28L19 28L19 27L18 27L18 25L20 25L20 27L21 27L21 26L23 26L23 27L24 27L24 26L27 26L27 25L24 25L24 26L23 26L23 25L20 25L20 24L18 24L18 23ZM17 24L17 25L16 25L16 26L17 26L17 25L18 25L18 24ZM14 27L14 28L15 28L15 27ZM0 0L0 7L7 7L7 0ZM1 1L1 6L6 6L6 1ZM2 2L2 5L5 5L5 2ZM22 0L22 7L29 7L29 0ZM23 1L23 6L28 6L28 1ZM24 2L24 5L27 5L27 2ZM0 22L0 29L7 29L7 22ZM1 23L1 28L6 28L6 23ZM2 24L2 27L5 27L5 24Z" fill="#000000"/></g></g></svg>
