<?xml version="1.0" encoding="UTF-8"?>
<svg xmlns="http://www.w3.org/2000/svg" version="1.1" width="300" height="300" viewBox="0 0 300 300"><rect x="0" y="0" width="300" height="300" fill="#ffffff"/><g transform="scale(10.345)"><g transform="translate(0,0)"><path fill-rule="evenodd" d="M10 0L10 2L11 2L11 0ZM12 0L12 1L13 1L13 2L12 2L12 4L13 4L13 3L14 3L14 4L17 4L17 5L15 5L15 6L14 6L14 8L15 8L15 9L12 9L12 7L13 7L13 5L11 5L11 6L10 6L10 4L11 4L11 3L8 3L8 4L9 4L9 5L8 5L8 7L9 7L9 8L6 8L6 9L10 9L10 11L11 11L11 9L12 9L12 10L13 10L13 11L12 11L12 13L13 13L13 12L14 12L14 13L18 13L18 14L17 14L17 15L18 15L18 16L17 16L17 17L16 17L16 16L15 16L15 15L16 15L16 14L15 14L15 15L14 15L14 16L15 16L15 17L12 17L12 15L13 15L13 14L11 14L11 16L10 16L10 13L11 13L11 12L9 12L9 13L7 13L7 12L8 12L8 11L9 11L9 10L8 10L8 11L7 11L7 10L5 10L5 8L0 8L0 9L3 9L3 11L2 11L2 10L1 10L1 11L2 11L2 12L3 12L3 11L4 11L4 15L7 15L7 16L6 16L6 17L7 17L7 18L5 18L5 17L4 17L4 16L3 16L3 14L2 14L2 13L1 13L1 12L0 12L0 13L1 13L1 14L0 14L0 21L1 21L1 18L2 18L2 20L3 20L3 19L4 19L4 20L5 20L5 21L8 21L8 23L9 23L9 22L10 22L10 21L11 21L11 17L12 17L12 18L13 18L13 19L12 19L12 21L13 21L13 20L14 20L14 21L16 21L16 22L15 22L15 23L14 23L14 24L15 24L15 25L12 25L12 23L13 23L13 22L11 22L11 23L10 23L10 24L8 24L8 29L11 29L11 28L10 28L10 27L11 27L11 25L12 25L12 26L13 26L13 27L12 27L12 29L13 29L13 28L14 28L14 29L16 29L16 28L14 28L14 27L17 27L17 25L19 25L19 24L17 24L17 25L16 25L16 24L15 24L15 23L16 23L16 22L17 22L17 23L20 23L20 26L19 26L19 27L18 27L18 28L17 28L17 29L18 29L18 28L19 28L19 29L20 29L20 28L21 28L21 29L24 29L24 28L25 28L25 27L27 27L27 28L26 28L26 29L27 29L27 28L28 28L28 26L29 26L29 25L27 25L27 24L28 24L28 22L29 22L29 21L28 21L28 22L27 22L27 24L25 24L25 23L26 23L26 22L25 22L25 20L26 20L26 21L27 21L27 20L28 20L28 19L27 19L27 20L26 20L26 17L27 17L27 18L29 18L29 17L28 17L28 16L25 16L25 15L26 15L26 14L29 14L29 13L28 13L28 12L29 12L29 11L27 11L27 12L25 12L25 11L26 11L26 10L25 10L25 9L26 9L26 8L25 8L25 9L24 9L24 8L23 8L23 9L22 9L22 8L21 8L21 6L20 6L20 7L19 7L19 6L18 6L18 7L19 7L19 8L17 8L17 9L16 9L16 8L15 8L15 6L16 6L16 7L17 7L17 5L21 5L21 4L19 4L19 3L21 3L21 2L19 2L19 1L21 1L21 0L18 0L18 1L17 1L17 2L16 2L16 0L15 0L15 1L14 1L14 0ZM8 1L8 2L9 2L9 1ZM14 2L14 3L16 3L16 2ZM17 2L17 3L19 3L19 2ZM9 6L9 7L10 7L10 6ZM11 6L11 7L12 7L12 6ZM10 8L10 9L11 9L11 8ZM19 8L19 9L17 9L17 10L19 10L19 12L18 12L18 11L17 11L17 12L18 12L18 13L19 13L19 12L21 12L21 10L22 10L22 9L20 9L20 8ZM27 8L27 10L29 10L29 9L28 9L28 8ZM15 9L15 10L16 10L16 9ZM19 9L19 10L20 10L20 9ZM23 9L23 11L22 11L22 13L25 13L25 14L24 14L24 15L22 15L22 14L21 14L21 13L20 13L20 14L18 14L18 15L19 15L19 16L20 16L20 18L19 18L19 17L17 17L17 18L16 18L16 17L15 17L15 18L16 18L16 19L14 19L14 20L16 20L16 21L17 21L17 22L19 22L19 21L20 21L20 20L21 20L21 19L22 19L22 20L24 20L24 17L25 17L25 16L24 16L24 15L25 15L25 14L26 14L26 13L25 13L25 12L24 12L24 11L25 11L25 10L24 10L24 9ZM4 10L4 11L5 11L5 14L7 14L7 15L8 15L8 14L7 14L7 13L6 13L6 12L7 12L7 11L5 11L5 10ZM14 11L14 12L15 12L15 11ZM1 14L1 15L2 15L2 14ZM20 14L20 16L21 16L21 17L22 17L22 18L23 18L23 17L24 17L24 16L23 16L23 17L22 17L22 16L21 16L21 14ZM7 16L7 17L9 17L9 18L8 18L8 19L9 19L9 18L10 18L10 16ZM3 17L3 18L4 18L4 19L5 19L5 20L7 20L7 19L5 19L5 18L4 18L4 17ZM20 18L20 19L21 19L21 18ZM16 19L16 20L17 20L17 21L19 21L19 20L17 20L17 19ZM8 20L8 21L9 21L9 20ZM21 21L21 24L24 24L24 21ZM22 22L22 23L23 23L23 22ZM10 24L10 25L11 25L11 24ZM15 25L15 26L16 26L16 25ZM22 25L22 26L20 26L20 27L19 27L19 28L20 28L20 27L22 27L22 28L23 28L23 27L24 27L24 26L27 26L27 25L24 25L24 26L23 26L23 25ZM22 26L22 27L23 27L23 26ZM0 0L0 7L7 7L7 0ZM1 1L1 6L6 6L6 1ZM2 2L2 5L5 5L5 2ZM22 0L22 7L29 7L29 0ZM23 1L23 6L28 6L28 1ZM24 2L24 5L27 5L27 2ZM0 22L0 29L7 29L7 22ZM1 23L1 28L6 28L6 23ZM2 24L2 27L5 27L5 24Z" fill="#000000"/></g></g></svg>
